<svg id="visual" viewBox="0 0 960 540" width="960" height="540" xmlns="http://www.w3.org/2000/svg" xmlns:xlink="http://www.w3.org/1999/xlink" version="1.1"><rect x="0" y="0" width="960" height="540" fill="#FFFFFF"></rect><defs><linearGradient id="grad1_0" x1="43.8%" y1="0%" x2="100%" y2="100%"><stop offset="14.444444444444446%" stop-color="#f7770f" stop-opacity="1"></stop><stop offset="85.55555555555554%" stop-color="#f7770f" stop-opacity="1"></stop></linearGradient></defs><defs><linearGradient id="grad1_1" x1="43.8%" y1="0%" x2="100%" y2="100%"><stop offset="14.444444444444446%" stop-color="#f7770f" stop-opacity="1"></stop><stop offset="85.55555555555554%" stop-color="#ffffff" stop-opacity="1"></stop></linearGradient></defs><defs><linearGradient id="grad2_0" x1="0%" y1="0%" x2="56.3%" y2="100%"><stop offset="14.444444444444446%" stop-color="#f7770f" stop-opacity="1"></stop><stop offset="85.55555555555554%" stop-color="#f7770f" stop-opacity="1"></stop></linearGradient></defs><defs><linearGradient id="grad2_1" x1="0%" y1="0%" x2="56.3%" y2="100%"><stop offset="14.444444444444446%" stop-color="#ffffff" stop-opacity="1"></stop><stop offset="85.55555555555554%" stop-color="#f7770f" stop-opacity="1"></stop></linearGradient></defs><g transform="translate(960, 0)"><path d="M0 486C-54.9 462.4 -109.8 438.7 -174.1 420.4C-238.4 402 -312 389 -343.7 343.7C-375.3 298.3 -364.8 220.7 -381.6 158C-398.3 95.4 -442.1 47.7 -486 0L0 0Z" fill="#ffbb8c"></path><path d="M0 243C-27.5 231.2 -54.9 219.4 -87.1 210.2C-119.2 201 -156 194.5 -171.8 171.8C-187.6 149.2 -182.4 110.4 -190.8 79C-199.1 47.7 -221.1 23.8 -243 0L0 0Z" fill="#f7770f"></path></g><g transform="translate(0, 540)"><path d="M0 -486C54.5 -455.8 108.9 -425.7 168 -405.6C227.1 -385.5 290.8 -375.5 340.8 -340.8C390.8 -306.2 427.1 -246.9 449 -186C470.9 -125.1 478.5 -62.5 486 0L0 0Z" fill="#ffbb8c"></path><path d="M0 -243C27.2 -227.9 54.5 -212.8 84 -202.8C113.5 -192.7 145.4 -187.7 170.4 -170.4C195.4 -153.1 213.5 -123.4 224.5 -93C235.5 -62.5 239.2 -31.3 243 0L0 0Z" fill="#f7770f"></path></g></svg>