<?xml version="1.0" standalone="no"?>
<svg viewBox="0 0 200 200" xmlns="http://www.w3.org/2000/svg">
  <path fill="#FA4D56" d="M28.5,-51.5C38.1,-43.8,47.9,-38.6,57.4,-30.4C67,-22.2,76.2,-11.1,79.2,1.7C82.2,14.5,78.8,29,70.6,39.5C62.4,50,49.4,56.5,36.8,64.3C24.2,72.2,12.1,81.4,0.1,81.1C-11.8,80.9,-23.6,71.2,-37.4,64C-51.2,56.9,-67,52.4,-77.2,42.1C-87.4,31.9,-91.9,15.9,-88.3,2.1C-84.6,-11.7,-72.8,-23.4,-64.9,-37.6C-56.9,-51.8,-53,-68.3,-42.8,-75.7C-32.7,-83,-16.3,-81.1,-3.4,-75.2C9.5,-69.2,18.9,-59.2,28.5,-51.5Z" transform="translate(100 100)" />
</svg>
