<svg id="visual" viewBox="0 0 900 600" width="900" height="600" xmlns="http://www.w3.org/2000/svg" xmlns:xlink="http://www.w3.org/1999/xlink" version="1.1"><rect x="0" y="0" width="900" height="600" fill="#F7770F"></rect><path d="M455 0L425 0L425 55L429 55L429 109L456 109L456 164L361 164L361 218L370 218L370 273L370 273L370 327L355 327L355 382L400 382L400 436L395 436L395 491L443 491L443 545L394 545L394 600L0 600L0 545L0 545L0 491L0 491L0 436L0 436L0 382L0 382L0 327L0 327L0 273L0 273L0 218L0 218L0 164L0 164L0 109L0 109L0 55L0 55L0 0L0 0Z" fill="#f7770f"></path><path d="M308 0L290 0L290 55L332 55L332 109L352 109L352 164L296 164L296 218L308 218L308 273L272 273L272 327L340 327L340 382L273 382L273 436L285 436L285 491L293 491L293 545L295 545L295 600L0 600L0 545L0 545L0 491L0 491L0 436L0 436L0 382L0 382L0 327L0 327L0 273L0 273L0 218L0 218L0 164L0 164L0 109L0 109L0 55L0 55L0 0L0 0Z" fill="#ffe8d8"></path><path d="M171 0L232 0L232 55L251 55L251 109L229 109L229 164L237 164L237 218L199 218L199 273L197 273L197 327L247 327L247 382L201 382L201 436L218 436L218 491L216 491L216 545L176 545L176 600L0 600L0 545L0 545L0 491L0 491L0 436L0 436L0 382L0 382L0 327L0 327L0 273L0 273L0 218L0 218L0 164L0 164L0 109L0 109L0 55L0 55L0 0L0 0Z" fill="#ffe8d8"></path><path d="M92 0L102 0L102 55L89 55L89 109L140 109L140 164L109 164L109 218L122 218L122 273L114 273L114 327L84 327L84 382L74 382L74 436L115 436L115 491L89 491L89 545L111 545L111 600L0 600L0 545L0 545L0 491L0 491L0 436L0 436L0 382L0 382L0 327L0 327L0 273L0 273L0 218L0 218L0 164L0 164L0 109L0 109L0 55L0 55L0 0L0 0Z" fill="#f7770f"></path></svg>