<svg id="visual" viewBox="0 0 900 600" width="900" height="600" xmlns="http://www.w3.org/2000/svg" xmlns:xlink="http://www.w3.org/1999/xlink" version="1.1"><rect x="0" y="0" width="900" height="600" fill="#F7770F"></rect><path d="M512 0L637 38L577 75L662 113L676 150L742 188L592 225L518 263L708 300L712 338L728 375L459 413L733 450L584 488L570 525L480 563L701 600L0 600L0 563L0 525L0 488L0 450L0 413L0 375L0 338L0 300L0 263L0 225L0 188L0 150L0 113L0 75L0 38L0 0Z" fill="#f7770f"></path><path d="M327 0L573 38L556 75L462 113L406 150L334 188L446 225L408 263L472 300L362 338L477 375L577 413L409 450L370 488L477 525L528 563L514 600L0 600L0 563L0 525L0 488L0 450L0 413L0 375L0 338L0 300L0 263L0 225L0 188L0 150L0 113L0 75L0 38L0 0Z" fill="#ffe8d8"></path><path d="M335 0L399 38L218 75L299 113L242 150L383 188L269 225L201 263L199 300L386 338L326 375L396 413L430 450L207 488L330 525L214 563L225 600L0 600L0 563L0 525L0 488L0 450L0 413L0 375L0 338L0 300L0 263L0 225L0 188L0 150L0 113L0 75L0 38L0 0Z" fill="#ffe8d8"></path><path d="M246 0L259 38L139 75L102 113L96 150L146 188L66 225L231 263L112 300L216 338L229 375L93 413L102 450L94 488L181 525L104 563L185 600L0 600L0 563L0 525L0 488L0 450L0 413L0 375L0 338L0 300L0 263L0 225L0 188L0 150L0 113L0 75L0 38L0 0Z" fill="#f7770f"></path></svg>