<svg id="visual" viewBox="0 0 900 600" width="900" height="600" xmlns="http://www.w3.org/2000/svg" xmlns:xlink="http://www.w3.org/1999/xlink" version="1.1"><rect x="0" y="0" width="900" height="600" fill="#F7770F"></rect><path d="M203 0L202.3 14.3C201.7 28.7 200.3 57.3 211.8 85.8C223.3 114.3 247.7 142.7 264.3 171.2C281 199.7 290 228.3 294.3 257C298.7 285.7 298.3 314.3 287.3 343C276.3 371.7 254.7 400.3 228.5 428.8C202.3 457.3 171.7 485.7 176.7 514.2C181.7 542.7 222.3 571.3 242.7 585.7L263 600L0 600L0 585.7C0 571.3 0 542.7 0 514.2C0 485.7 0 457.3 0 428.8C0 400.3 0 371.7 0 343C0 314.3 0 285.7 0 257C0 228.3 0 199.7 0 171.2C0 142.7 0 114.3 0 85.8C0 57.3 0 28.7 0 14.3L0 0Z" fill="#000000" stroke-linecap="round" stroke-linejoin="miter"></path></svg>